<svg width="269" height="160" viewBox="0 0 269 160" fill="none" xmlns="http://www.w3.org/2000/svg">
<mask id="mask0_6_199" style="mask-type:alpha" maskUnits="userSpaceOnUse" x="0" y="0" width="269" height="160">
<rect x="0.600342" y="0.581116" width="268.4" height="159.419" fill="#D9D9D9"/>
</mask>
<g mask="url(#mask0_6_199)">
<g clip-path="url(#clip0_6_199)">
<path fill-rule="evenodd" clip-rule="evenodd" d="M169.468 56.5356C168.565 58.9291 167.045 65.0886 166.687 67.8103C166.01 72.9485 166.526 76.7802 168.623 82.1912C172 90.9006 181.084 102.933 189.024 109.213C191.917 111.501 194.94 111.683 196.858 109.687C198.254 108.232 199.233 106.466 199.602 104.738C200.056 102.608 199.861 99.5492 199.206 98.5399C198.916 98.0928 198.638 97.5728 198.589 97.3842C198.529 97.1577 198.136 96.9754 197.426 96.8459C194.562 96.3228 187.459 89.4958 183.614 83.5706C182.931 82.5186 182.276 81.5989 182.158 81.5269C181.808 81.3133 178.849 76.0748 177.762 73.7444C176.25 70.5009 175.032 67.5974 174.164 65.1666C173.415 63.0697 171.489 55.7502 171.365 54.5325C171.332 54.2086 171.15 53.9427 170.96 53.9405C170.541 53.9357 170.275 54.3983 169.468 56.5356ZM161.655 83.6548C159.145 95.2132 160.432 102.415 166.782 112.345C169.52 116.626 172.462 120.062 176.904 124.167C178.614 125.746 179.68 126.499 183.752 129.003C188.045 131.642 188.862 132.069 191.183 132.882C194 133.868 194.539 133.885 195.974 133.035C196.755 132.572 197.084 132.164 197.932 130.606C199.341 128.015 199.576 126.325 198.894 123.683C198.17 120.879 197.413 119.928 195.198 119.044C192.026 117.778 187.371 114.878 183.224 111.586C179.838 108.898 174.823 103.123 171.537 98.1294C168.57 93.6193 166.714 89.9991 164.729 84.8504C163.994 82.9423 163.214 81.2729 162.998 81.1408C162.467 80.8171 162.136 81.4368 161.655 83.6548ZM158.806 110.179C158.578 111.229 158.406 115.193 158.558 115.871C158.654 116.296 158.7 116.725 158.66 116.824C158.621 116.923 158.542 117.106 158.487 117.232C158.431 117.357 158.574 117.575 158.804 117.715C159.096 117.893 159.123 118.065 158.895 118.281C158.694 118.471 158.681 118.99 158.86 119.619C159.022 120.184 159.102 120.732 159.039 120.835C158.738 121.329 160.362 128.119 161.459 130.95C163.68 136.68 169.222 144.654 172.281 146.52C172.658 146.75 173.078 147.152 173.215 147.414C173.603 148.155 176.687 148.336 179.253 147.767C181.905 147.179 183.156 146.255 184.652 143.778C185.971 141.594 186.144 140.178 185.411 137.563L184.858 135.589L182.404 134.258C173.421 129.385 165.7 121.341 161.197 112.162C159.635 108.978 159.153 108.578 158.806 110.179ZM231.087 31.3761C231.339 31.5297 231.468 31.7819 231.373 31.9365C231.279 32.0911 231.391 32.5185 231.623 32.8859C233.172 35.3443 235.935 44.2543 236.438 48.4101C236.803 51.4284 237.003 55.5427 236.895 57.8207C236.541 65.3635 234.675 74.2371 233.137 75.6911C232.655 76.1461 230.879 82.2125 230.652 84.1731C230.414 86.241 230.576 88.2471 231.105 89.77C231.872 91.979 233.822 93.8049 235.733 94.1039C236.921 94.2901 239.383 93.6695 240.478 92.9079C241.833 91.9649 244.536 87.7744 245.844 84.5868C246.898 82.0217 248.6 77.1592 248.938 75.7494C249.038 75.3322 249.384 73.9781 249.707 72.7404C250.696 68.9569 251.926 61.5454 252.198 57.7371C252.639 51.5717 252.294 43.593 251.511 41.865C250.931 40.5841 240.395 34.3296 235.6 32.4203C234.867 32.128 233.862 31.7142 233.367 31.5005C231.92 30.8756 231.13 30.6846 230.871 30.8978C230.735 31.0097 230.83 31.219 231.087 31.3761ZM257.738 51.244C258.363 63.5865 255.284 77.8981 249.439 89.8245C247.135 94.5263 243.032 101.038 240.139 104.586C238.75 106.29 237.43 107.984 237.205 108.352C236.186 110.02 236.526 113.739 237.827 115.157C238.613 116.014 240.454 116.84 241.848 116.961C245.219 117.253 250.265 113.635 253.992 108.256C254.807 107.079 255.878 105.809 256.373 105.433C257.15 104.843 257.746 103.933 260.783 98.7035C265.138 91.2045 267.674 85.5659 269.403 79.5408C271.187 73.326 272.066 65.2121 271.223 62.7479C270.553 60.7872 266.926 55.4644 264.332 52.6337C259.603 47.4731 258.198 46.2678 257.763 47.0011C257.642 47.2059 257.63 49.1154 257.738 51.244ZM243.483 167.852C243.737 168.471 244.601 169.463 245.744 170.446C246.342 170.961 247.788 172.26 248.957 173.333C250.878 175.096 251.729 175.68 257.775 179.388C263.241 182.741 264.972 183.703 267.228 184.648C272.292 186.768 278.734 188.944 281.725 189.546C286.637 190.533 291.775 191.396 293.621 191.544C294.885 191.645 296.305 191.765 296.775 191.81C298.117 191.939 305.58 191.936 307.329 191.807C309.018 191.681 310.732 191.268 311.671 190.761C312.173 190.49 312.24 190.319 312.18 189.477C311.956 186.354 311.401 185.833 308.743 186.253C305.662 186.739 300.73 187.028 297.971 186.885C294.569 186.708 287.836 186.013 287.491 185.803C287.432 185.767 286.722 185.647 285.915 185.536C280.98 184.858 271.509 181.785 265.495 178.911C259.12 175.864 252.679 171.325 249.547 167.673C248.801 166.803 248.667 166.732 247.267 166.469C244.858 166.017 243.008 166.694 243.483 167.852Z" fill="#164029"/>
<path fill-rule="evenodd" clip-rule="evenodd" d="M184.587 12.3091C184.995 16.9184 184.981 17.8203 184.464 20.3667C183.913 23.0866 181.705 29.2188 179.687 33.6383C178.623 35.9684 178.035 37.5425 177.572 39.3048C176.787 42.288 176.689 42.6997 176.7 42.9762C176.707 43.1396 176.584 43.7821 176.427 44.4039C176.11 45.6658 176.019 47.648 176.139 50.75C176.226 53.0199 176.317 53.7158 176.94 56.8483C177.733 60.8347 181.098 69.2209 183.257 72.5895C183.613 73.1441 183.928 73.8892 183.957 74.2452C183.986 74.6013 184.133 74.8942 184.284 74.8958C184.435 74.8976 184.976 75.6403 185.487 76.5461C185.998 77.452 186.892 78.8579 187.474 79.6704C188.056 80.4828 189.138 82.0258 189.88 83.0994C190.621 84.1729 191.529 85.3524 191.898 85.7207C192.868 86.6892 197.94 92.75 198.375 93.4591C198.9 94.3171 198.927 94.9594 198.469 95.7269C198.134 96.2901 197.937 96.3668 197.237 96.2068C196.008 95.9264 195.275 95.4079 192.843 93.1015C185.788 86.4095 179.966 77.8975 176.353 68.9913C175.956 68.0118 175.295 66.3986 174.885 65.4062C174.474 64.4139 173.592 61.3644 172.924 58.6294C171.96 54.6842 171.597 53.6081 171.166 53.4196C170.642 53.1902 170.587 53.2471 169.522 55.1192C168.756 56.4665 168.262 57.7094 167.901 59.2026C167.615 60.3833 167.18 62.075 166.935 62.9618C166.219 65.5543 165.68 69.2509 165.688 71.5123C165.697 74.0407 167.211 80.2575 168.635 83.6154C171.586 90.5704 176.538 97.7826 182.842 104.308C183.248 104.728 183.781 105.3 184.026 105.579C185.575 107.34 192.206 112.579 195.23 114.429C197.254 115.669 201.636 117.624 203.316 118.038C203.993 118.205 204.905 118.601 205.342 118.918C206.02 119.409 206.097 119.579 205.87 120.078C205.511 120.865 203.935 120.901 201.191 120.186C192.348 117.881 185.112 113.286 178.159 105.559C174.444 101.431 169.748 94.6021 167.721 90.3785C166.212 87.2343 164.424 82.859 164.558 82.6391C164.623 82.5333 164.351 81.9575 163.954 81.3597L163.233 80.2726L162.501 80.5174C162.044 80.6704 161.717 80.9591 161.628 81.2875C158.963 91.1758 159.338 99.0432 162.818 106.243C166.865 114.618 170.381 119.202 177.846 125.836C180.572 128.259 186.68 132.067 189.53 133.121C191.68 133.916 197.02 135.429 199.533 135.954C199.809 136.011 199.802 136.135 199.506 136.414C199.284 136.625 199.159 136.904 199.229 137.036C199.299 137.168 199.417 137.175 199.492 137.052C199.567 136.929 199.718 136.883 199.828 136.95C200.123 137.13 199.272 137.857 198.677 137.931C197.96 138.022 195.528 137.686 192.678 137.102C186.162 135.767 180.535 133 175.285 128.55C169.337 123.507 165.202 118.343 161.269 111.046C160.029 108.748 159.463 108.295 158.644 108.949C158.205 109.299 158.08 109.797 157.95 111.712C157.784 114.151 157.846 117.069 158.078 117.707C158.152 117.912 158.199 118.416 158.181 118.827C158.073 121.401 160.499 130.381 162.359 134.288C163.104 135.855 163.993 137.569 164.335 138.096C164.676 138.624 165.371 139.709 165.88 140.505C166.388 141.302 167.011 142.171 167.264 142.436C167.517 142.701 168.378 143.625 169.177 144.49C169.976 145.354 170.876 146.289 171.176 146.567C171.617 146.975 171.639 147.101 171.291 147.212C170.239 147.55 165.255 144.905 162.707 142.656C161.624 141.7 161.379 141.565 160.908 141.669C160.163 141.834 160.173 142.403 160.963 145.048C162.535 150.309 166.83 158.018 170.764 162.64C173.136 165.427 175.27 167.26 179.072 169.776L182.509 172.049L181.213 171.881C179.682 171.682 179.29 171.82 179.405 172.516C179.653 174.013 184.782 179.533 189.933 183.846C194.414 187.6 202.569 192.134 207.266 193.485C209.254 194.056 213.92 194.969 215.198 195.037C219.471 195.262 225.27 194.273 228.878 192.704C232.956 190.93 237.055 187.844 239.17 184.957C241.822 181.334 243.113 177.486 243.936 170.742L244.06 169.725L244.628 170.486C245.963 172.275 251.573 176.566 256.884 179.86C262.816 183.539 269.215 186.686 272.77 187.671C273.479 187.867 275.189 188.4 276.569 188.855C280.48 190.144 286.196 191.434 288.31 191.505C288.848 191.523 289.408 191.606 289.555 191.689C289.845 191.854 294.756 192.333 298.621 192.572C301.543 192.753 308.25 192.458 310.262 192.06C312.702 191.577 313.488 190.117 312.632 187.653C311.965 185.731 310.434 185.007 308.261 185.586C307.251 185.854 302.551 186.239 300.01 186.261C298.167 186.277 291.72 185.723 288.695 185.288C286.332 184.949 282.256 184.046 277.265 182.756C275.846 182.39 269.825 180.188 268.482 179.544C268.054 179.34 266.595 178.657 265.238 178.027C262.292 176.66 255.451 172.267 252.828 170.06C251.865 169.251 251.058 168.513 251.034 168.423C251.01 168.332 252.497 168.557 254.337 168.922C256.178 169.287 258.706 169.596 259.956 169.609C262.812 169.639 267.288 168.866 269.888 167.893C274.052 166.335 279.449 162.665 282.08 159.601C282.934 158.607 283.927 157.452 284.287 157.034C285.503 155.621 290.36 147.479 291.196 145.452C294.04 138.554 295.396 131.687 295.506 123.626C295.6 116.795 292.951 104.019 291.28 103.24C290.784 103.009 290.542 103.108 289.772 103.854C289.212 104.397 288.525 105.391 288.011 106.404C286.439 109.501 286.176 109.948 285.926 109.945C285.789 109.944 285.668 110.159 285.657 110.423C285.622 111.309 281.027 117.593 278.597 120.081C273.599 125.196 270.509 127.906 266.513 130.68C263.58 132.716 262.142 133.346 261.312 132.96C260.447 132.557 260.516 131.22 261.46 130.107C262.525 128.851 266.916 124.733 269.542 122.528C270.862 121.42 272.378 120.062 272.912 119.511C273.446 118.96 274.608 117.843 275.494 117.028C277.054 115.594 280.484 111.622 282.628 108.767C284.234 106.628 286.106 102.562 286.661 100.003C287.77 94.8925 286.979 88.0576 284.492 81.2532C282.422 75.5931 278.679 69.0639 277.452 68.9747C276.654 68.9164 276.332 69.251 276.211 70.2675C276.045 71.6568 274.967 76.9094 274.45 78.8515C274.042 80.3822 273.24 82.6489 271.458 87.3168C270.227 90.54 264.964 99.7065 261.738 104.247C258.621 108.633 258.097 109.271 258.077 108.7C258.07 108.467 258.302 108.012 258.595 107.689C259.222 106.996 259.259 105.622 258.657 105.373C258.308 105.228 258.615 104.598 261.516 99.5128C264.74 93.8615 267.358 88.2454 268.618 84.2794C268.872 83.4781 269.334 82.0638 269.643 81.1368C270.484 78.6185 270.858 77.0427 271.489 73.3581C272.76 65.9375 272.654 63.5413 270.916 60.3662C269.953 58.6061 267.032 54.4641 265.481 52.6594C263.631 50.5072 260.247 47.3132 258.985 46.5282C257.03 45.3126 256.907 45.5725 257.196 50.3231C257.459 54.6584 257.164 60.8255 256.479 65.2771C255.407 72.2502 252.865 80.7591 250.473 85.3824C249.908 86.4729 248.855 88.6349 248.133 90.1869C246.837 92.97 245.402 95.6641 244.579 96.8599C240.182 103.251 238.985 104.915 238.42 105.422C238.05 105.754 237.138 106.762 236.393 107.663C234.776 109.616 234.355 109.898 233.676 109.484C232.704 108.891 232.81 108.653 236.431 103.316C239.359 98.9996 240.22 97.5491 242.553 93.0034C246.901 84.5295 248.276 81.2096 249.689 75.773C252.706 64.1688 253.63 55.5539 252.817 46.6237C252.422 42.2937 252.155 41.4565 250.839 40.4218C248.456 38.5491 242.997 35.1044 240.295 33.7693C236.114 31.7033 231.933 30.0519 231.199 30.1764C229.863 30.4034 229.924 30.9239 231.72 34.5794C235.613 42.5015 237.083 51.9544 235.978 61.9615C235.641 65.0172 234.997 68.8344 234.541 70.4755C234.06 72.2067 232.569 75.7013 232.285 75.7642C232.158 75.7924 231.817 75.4998 231.527 75.1138C230.888 74.2626 230.74 71.8219 231.053 67.3C231.378 62.5944 231.461 58.2047 231.287 54.9294C231.078 51.0115 229.983 44.602 229.024 41.6871C227.615 37.4038 225.486 33.0903 223.995 31.4975C221.702 29.0466 219.925 27.5017 218.077 26.3492C215.389 24.6742 210.612 22.2937 209.04 21.846C207.791 21.4901 207.077 21.2212 202.789 19.4912C201.658 19.0347 199.168 17.7792 197.256 16.7008C193.571 14.6228 194.025 14.9807 188.044 9.44954C186.363 7.89457 185.884 7.54907 185.48 7.59997C184.461 7.72873 184.271 8.73253 184.587 12.3091ZM184.886 10.6267C185.418 18.0624 185.417 18.0748 184.698 21.3702C183.984 24.6404 183.44 26.2704 181.531 30.8502C178.61 37.8604 177.954 39.61 177.417 41.8266C177.096 43.1498 176.805 44.7275 176.768 45.3326C176.731 45.938 176.627 46.5556 176.535 46.7052C176.444 46.8549 176.468 47.0378 176.589 47.1115C176.71 47.1852 176.707 47.4117 176.582 47.6145C176.191 48.2517 176.711 53.813 177.457 56.9648C178.159 59.9311 179.328 63.4237 180.466 65.9561C184.403 74.7123 188.777 81.425 195.823 89.5261C197.298 91.2223 198.754 93.1167 199.057 93.7358C199.562 94.7649 199.562 94.9398 199.054 95.7721C198.258 97.077 197.618 97.0476 195.24 95.5967C193.739 94.6806 192.82 93.8907 190.687 91.6813C188.231 89.1382 185.605 86.0373 184.209 84.0327C178.393 75.6801 175.425 69.3236 172.846 59.6914C170.958 52.6406 170.882 52.5596 169.462 56.1019C167.477 61.0528 166.035 68.4853 166.185 72.9887C166.253 75.0386 167.523 79.9674 168.765 83.0023C172.664 92.534 181.804 104.039 190.726 110.646C195.338 114.061 198.957 116.012 203.277 117.41C206.784 118.546 206.881 118.592 207.085 119.236C207.46 120.418 205.826 121.515 203.955 121.339C199.008 120.874 189.862 116.705 185.084 112.738C183.818 111.687 182.602 110.68 182.38 110.499C181.607 109.87 179.307 107.598 177.753 105.927C172.197 99.9576 167.404 91.9021 164.308 83.3284C163.484 81.0466 163.275 80.7698 162.554 81.0014C162.023 81.1721 161.572 82.6769 160.971 86.2811C160.011 92.0335 160.091 96.4641 161.233 100.893C163.381 109.218 170.908 119.831 179.394 126.497C182.354 128.823 187.315 131.715 190.151 132.768C199.851 136.369 206.621 136.996 217.818 135.328C219.702 135.047 225.865 133.359 226.037 133.076C226.132 132.921 226.116 132.876 224.237 128.074C221.818 121.892 215.812 105.427 214.04 100.118C213.337 98.011 211.575 92.4482 210.126 87.7567C208.678 83.0651 207.343 78.9245 207.161 78.5554C206.9 78.0255 206.184 77.4813 203.763 75.9714C198.712 72.8202 196.185 70.4228 192.726 65.4983C190.765 62.7067 188.117 57.6501 188.107 56.68C188.103 56.286 188.273 56.1356 188.876 56.0024L189.649 55.831L190.191 56.8038C193.197 62.1974 197.533 67.8738 200.627 70.4662C202.188 71.7735 204.997 73.5249 205.298 73.3785C205.418 73.3206 204.597 70.2873 203.475 66.6376C202.353 62.9881 201.154 59.0041 200.81 57.7845C200.467 56.5649 199.319 52.5601 198.26 48.8848C194.691 36.4931 193.187 30.754 193.359 30.182C193.453 29.8691 193.739 29.5461 193.993 29.4643C194.819 29.1991 195.536 29.9107 196.036 31.4908C198.344 38.7867 201.297 48.697 204.156 58.742C207.685 71.141 208.869 74.934 209.262 75.0908C210.008 75.3891 211.957 71.7995 214.352 65.7198C215.462 62.9 216.682 58.4162 217.173 55.3521C217.683 52.1634 217.956 46.4278 217.757 43.0816C217.647 41.2516 217.653 39.5992 217.769 39.4093C217.986 39.0531 219.169 38.8874 219.603 39.1523C219.958 39.3691 220.53 44.8143 220.535 48.0213C220.54 51.8742 220.192 54.919 219.252 59.2267C217.861 65.6039 216.257 69.5456 212.63 75.4965L210.369 79.2057L211.725 83.4957C214.652 92.7586 215.373 95.024 215.683 95.9416C216.004 96.8886 219.49 106.72 220.557 109.689C220.864 110.542 221.461 112.234 221.882 113.448C224.919 122.189 229.351 133.321 229.842 133.44C230.312 133.555 236.575 128.773 239.172 126.317C239.992 125.542 241.423 124.198 242.353 123.33C244.652 121.185 248.328 117.048 251.789 112.709C254.313 109.546 255.293 108.077 259.764 100.763C265.453 91.4572 266.553 89.1826 268.956 81.7508C270.928 75.6515 272.23 67.572 271.801 64.0937C271.543 62.0005 268.591 56.9931 265.627 53.6199C264.942 52.8404 264.21 51.987 264.001 51.7235C263.124 50.6203 258.5 46.3627 258.091 46.282C257.846 46.2339 257.577 46.3071 257.493 46.4446C257.409 46.5821 257.45 48.5841 257.584 50.8937C258.123 60.1726 256.336 71.4142 252.684 81.7181C251.787 84.2517 248.646 90.9671 247.274 93.2861C246.65 94.3404 245.843 95.8211 245.48 96.5765C245.049 97.4739 244.705 97.9486 244.489 97.9463C244.254 97.9435 244.151 98.1036 244.136 98.4969C244.123 98.8018 244.01 99.1018 243.883 99.1633C243.756 99.2248 242.72 100.579 241.579 102.173C236.578 109.164 234.812 110.757 233.171 109.756C231.962 109.017 232.088 108.671 235.319 103.854C244.863 89.6269 249.005 79.6665 251.534 64.8688C252.24 60.7384 252.746 54.7926 252.684 51.3493C252.617 47.6341 252.029 42.3759 251.604 41.7C250.493 39.9351 239.13 33.4343 233.309 31.234C231.569 30.5762 231.174 30.5108 230.902 30.8355C230.67 31.1141 230.741 31.5266 231.154 32.2936C234.043 37.6559 236.247 45.8119 236.684 52.7635C237.183 60.7023 235.1 73.1294 232.838 75.7089C232.116 76.5329 231.72 76.4022 231.027 75.1109C230.257 73.6771 230.225 72.5256 230.709 63.4668C231.494 48.7597 228.659 37.4461 222.577 31.0087C220.158 28.4484 219.267 27.7483 216.067 25.8933C213.475 24.3906 211.813 23.6613 202.629 19.9997C201.562 19.5742 199.074 18.3159 197.1 17.2034C193.296 15.0605 193.282 15.049 186.816 8.95357C185.863 8.05525 185.649 7.9326 185.312 8.0917C184.73 8.36652 184.726 8.38591 184.886 10.6267ZM158.488 110.607C158.214 112.116 158.168 116.77 158.418 117.625C158.475 117.819 158.566 118.788 158.621 119.778C158.676 120.768 159.274 123.679 159.95 126.247C161.545 132.306 163.592 136.62 167.085 141.286C168.695 143.435 171.416 146.283 172.485 146.935C173.406 147.497 172.428 147.852 170.706 147.582C168.904 147.299 165.527 145.509 162.901 143.444C161.9 142.657 161.005 142.031 160.912 142.051C159.779 142.302 163.234 150.714 166.839 156.485C170.746 162.739 174.496 166.481 180.467 170.083C182.29 171.183 183.557 172.061 183.487 172.176C183.268 172.535 182.352 172.607 181.118 172.362C180.449 172.229 179.855 172.199 179.797 172.294C179.493 172.793 183.58 177.44 187.46 181.005C195.046 187.975 203.457 192.486 211.739 194.026C218.812 195.34 226.613 193.973 232.191 190.441C235.444 188.382 238.568 185 240.225 181.747C242.121 178.024 242.933 174.947 243.246 170.295L243.374 168.384L243.887 168.911C244.546 169.588 246.345 171.258 249.039 173.693C250.921 175.394 251.951 176.1 257.647 179.597C264.557 183.841 266.138 184.621 272.59 186.975C279.85 189.622 285.771 190.936 293.835 191.687C299.114 192.179 301.173 192.249 305.379 192.078C310.306 191.878 312.166 191.244 312.438 189.673C312.595 188.765 312.076 186.929 311.499 186.353C310.943 185.797 309.645 185.663 308.295 186.023C307.8 186.155 306.179 186.366 304.693 186.492C296.684 187.171 285.064 185.716 276.405 182.948C269.122 180.621 263.921 178.223 258.523 174.703C253.906 171.694 249.185 167.771 249.813 167.467C249.936 167.407 251.174 167.641 252.564 167.986C260.616 169.986 266.886 169.285 273.465 165.649C275.874 164.318 277.61 162.996 280.097 160.601C290.24 150.832 295.785 135.708 294.872 120.301C294.519 114.336 292.154 104.082 291.041 103.689C290.818 103.611 290.593 103.668 290.541 103.816C290.34 104.384 285.045 112.976 283.887 114.613C280.193 119.834 274.447 125.488 267.886 130.359C262.708 134.203 260.7 134.744 260.17 132.439C260 131.697 260.097 131.361 260.832 130.157C261.355 129.299 262.265 128.244 263.154 127.467C270.491 121.049 276.264 115.619 278.572 112.964C282.079 108.929 285.225 103.347 286.17 99.4823C287.627 93.5163 285.706 83.6894 281.488 75.5363C280.33 73.2982 277.59 69.2534 277.278 69.3225C277.117 69.358 276.79 70.3757 276.551 71.5842C276.312 72.7925 275.956 74.5964 275.76 75.5931C275.366 77.6019 274.635 80.1461 273.664 82.8952C273.041 84.6607 270.4 90.8733 269.907 91.7333C269.772 91.9696 269.078 93.2421 268.366 94.5612C263.955 102.728 257.226 112.097 250.551 119.367C246.201 124.105 244.706 125.508 237.082 131.999C230.972 137.201 231.444 136.702 231.674 137.716C232.04 139.325 238.265 153.737 238.712 154.009C238.772 154.046 239.768 154.035 240.926 153.986C243.034 153.895 246.841 153.262 250.356 152.418C256.315 150.987 267.241 146.647 271.886 143.865C273.051 143.168 273.474 143.044 273.869 143.285C275.111 144.043 274.616 145.041 272.31 146.429C266.537 149.904 258.651 153.195 252.082 154.872C251.1 155.122 250.164 155.399 250.001 155.486C249.838 155.573 248.161 155.876 246.274 156.16C244.386 156.443 242.246 156.82 241.518 156.998L240.194 157.321L240.593 159.377C240.814 160.508 240.932 161.534 240.857 161.657C240.663 161.975 239.707 161.864 239.016 161.442C238.693 161.245 238.229 160.57 237.984 159.942C237.739 159.315 237.404 158.719 237.24 158.62C237.076 158.52 236.428 158.678 235.799 158.972C235.17 159.266 233.427 159.929 231.925 160.447C230.423 160.965 228.315 161.724 227.242 162.133C225.111 162.947 224.636 162.964 224.197 162.244C223.712 161.449 224.465 160.629 226.435 159.807C231.909 157.521 235.264 155.997 235.411 155.732C235.606 155.381 235.496 155.088 233.238 149.932C232.303 147.796 231.053 144.731 230.46 143.122C229.07 139.352 227.946 137.004 227.357 136.645C227.059 136.463 225.749 136.62 223.742 137.078C217.415 138.521 212.19 139.258 206.854 139.459C205.316 139.517 196.513 138.558 193.759 138.033C186.809 136.708 179.985 133.366 174.5 128.602C168.815 123.664 164.744 118.546 161.417 112.155C159.617 108.696 158.903 108.319 158.488 110.607ZM220.006 77.3728C219.885 77.8569 219.587 79.11 219.344 80.1573C219.101 81.2047 218.508 83.6976 218.025 85.6971C217.099 89.5362 217.061 90.0691 217.68 90.4469C218.772 91.1133 219.293 89.8993 221.231 82.1781C222.345 77.7372 222.529 76.2188 222.029 75.5872C221.369 74.753 220.46 75.5551 220.006 77.3728ZM192.429 149.328C192.539 149.745 192.78 149.929 193.592 150.211C197.398 151.537 207.157 151.749 214.996 150.676C219.389 150.075 219.82 149.93 220.079 148.955C220.41 147.706 219.652 147.286 217.741 147.661C216.894 147.826 215.633 148.003 214.94 148.052C214.246 148.101 212.951 148.223 212.062 148.322C211.172 148.42 210.223 148.496 209.952 148.49C209.681 148.484 208.646 148.513 207.652 148.554C206.658 148.595 205.151 148.653 204.304 148.683C203.457 148.713 200.586 148.526 197.925 148.267C193.706 147.857 193.036 147.861 192.689 148.299C192.47 148.575 192.353 149.038 192.429 149.328ZM190.6 168.424C190.7 168.804 190.862 169.164 190.96 169.223C191.327 169.447 196.056 169.764 198.69 169.741C203.816 169.697 211.74 168.864 212.509 168.288C212.677 168.162 212.865 167.766 212.927 167.406C213.117 166.307 212.266 166.101 208.972 166.448C205.085 166.859 200.071 167.089 196.875 167.003C191.179 166.85 190.951 166.861 190.682 167.302C190.537 167.539 190.5 168.044 190.6 168.424ZM221.122 176.14C221.382 176.96 221.823 176.989 223.483 176.296C224.262 175.971 225.505 175.466 226.247 175.175C228.789 174.176 233.059 171.966 233.336 171.505C233.769 170.783 233.641 170.282 232.941 169.96C232.415 169.717 231.984 169.84 230.569 170.637C229.617 171.172 227.172 172.309 225.135 173.163C223.099 174.017 221.319 174.9 221.182 175.126C221.044 175.352 221.017 175.808 221.122 176.14ZM240.698 147.118C240.795 147.489 240.974 147.853 241.095 147.927C241.454 148.146 242.61 147.8 243.711 147.143C244.278 146.805 245.676 146.12 246.817 145.621C247.958 145.121 249.687 144.255 250.659 143.696C252.126 142.852 252.447 142.566 252.543 142.011C252.798 140.534 251.386 140.165 249.775 141.289C249.205 141.686 247.329 142.65 245.605 143.432C243.881 144.213 242.032 145.21 241.495 145.648C240.562 146.409 240.528 146.471 240.698 147.118Z" fill="#E3F0CE"/>
<path fill-rule="evenodd" clip-rule="evenodd" d="M184.886 10.6266C185.417 18.0624 185.417 18.0748 184.698 21.3702C183.984 24.6404 183.44 26.2704 181.531 30.8502C178.61 37.8604 177.954 39.61 177.417 41.8266C177.096 43.1498 176.805 44.7275 176.768 45.3326C176.731 45.9379 176.627 46.5556 176.535 46.7052C176.444 46.8549 176.468 47.0378 176.589 47.1115C176.71 47.1852 176.707 47.4117 176.582 47.6145C176.191 48.2517 176.711 53.813 177.457 56.9648C178.159 59.9311 179.327 63.4237 180.466 65.956C184.403 74.7123 188.777 81.425 195.822 89.526C197.298 91.2223 198.753 93.1167 199.057 93.7358C199.558 94.755 199.559 94.9449 199.073 95.7418C198.777 96.226 198.334 96.6747 198.087 96.739C197.723 96.8342 197.72 96.8743 198.07 96.954C198.307 97.008 198.541 97.204 198.59 97.3894C198.639 97.5752 198.916 98.0928 199.206 98.5399C199.861 99.5492 200.056 102.608 199.602 104.738C199.233 106.466 198.254 108.232 196.858 109.687C195.698 110.894 193.781 111.362 192.097 110.848C189.612 110.09 190.689 110.954 196.461 114.351C199.297 116.021 200.102 116.382 203.277 117.41C206.784 118.546 206.881 118.592 207.085 119.236C207.46 120.418 205.826 121.515 203.955 121.339C201.68 121.125 194.914 118.868 192.875 117.642C192.184 117.227 191.995 117.187 192.164 117.489C192.314 117.756 193.18 118.219 194.623 118.803C196.687 119.639 196.906 119.775 197.604 120.654C198.686 122.017 199.493 125.374 199.19 127.248C198.842 129.404 197.241 132.284 195.974 133.035C194.539 133.885 194 133.868 191.183 132.882C188.864 132.069 188.016 131.627 183.522 128.885C180.743 127.189 178.975 126.195 179.594 126.676C180.212 127.158 182.279 128.516 184.186 129.696C186.886 131.366 188.206 132.046 190.15 132.768C199.851 136.369 206.621 136.996 217.818 135.328C219.702 135.047 225.865 133.359 226.037 133.076C226.132 132.921 226.116 132.876 224.237 128.074C221.818 121.892 215.812 105.427 214.04 100.118C213.337 98.011 211.575 92.4482 210.126 87.7567C208.677 83.0651 207.343 78.9245 207.161 78.5554C206.9 78.0255 206.184 77.4813 203.763 75.9713C198.712 72.8202 196.185 70.4228 192.726 65.4983C190.765 62.7067 188.117 57.6501 188.107 56.68C188.103 56.286 188.273 56.1356 188.876 56.0024L189.649 55.8309L190.191 56.8038C193.197 62.1974 197.533 67.8738 200.627 70.4662C202.188 71.7735 204.997 73.5249 205.298 73.3785C205.418 73.3206 204.597 70.2872 203.475 66.6376C202.353 62.988 201.154 59.0041 200.81 57.7845C200.467 56.5649 199.319 52.5601 198.26 48.8848C194.691 36.493 193.187 30.754 193.359 30.182C193.453 29.8691 193.739 29.5461 193.993 29.4643C194.819 29.1991 195.536 29.9107 196.036 31.4908C198.344 38.7867 201.297 48.697 204.156 58.742C207.685 71.141 208.869 74.934 209.262 75.0908C210.008 75.3891 211.957 71.7995 214.352 65.7198C215.462 62.9 216.682 58.4162 217.173 55.3521C217.683 52.1634 217.956 46.4278 217.757 43.0816C217.647 41.2516 217.653 39.5992 217.769 39.4093C217.986 39.0531 219.169 38.8874 219.603 39.1523C219.958 39.3691 220.53 44.8143 220.535 48.0213C220.54 51.8742 220.192 54.919 219.252 59.2267C217.861 65.6039 216.257 69.5456 212.63 75.4965L210.369 79.2057L211.725 83.4957C214.652 92.7586 215.373 95.024 215.683 95.9416C216.004 96.8886 219.49 106.72 220.557 109.689C220.864 110.542 221.46 112.234 221.882 113.448C224.919 122.189 229.351 133.321 229.842 133.44C230.311 133.554 236.575 128.773 239.172 126.317C239.992 125.542 241.423 124.198 242.353 123.33C244.649 121.188 248.323 117.053 251.79 112.71C254.325 109.534 255.285 108.096 259.83 100.658C264.83 92.4757 265.041 92.0889 266.585 88.2569C268.084 84.5368 268.805 82.3948 268.325 83.0859C268.208 83.2539 267.806 84.2267 267.432 85.2482C265.972 89.2296 264.078 93.0612 260.725 98.8171C257.75 103.923 257.14 104.85 256.369 105.436C255.877 105.81 254.807 107.079 253.992 108.256C250.993 112.586 247.207 115.778 244.038 116.65C242.388 117.105 241.458 117.052 239.785 116.408C238.043 115.737 237.204 114.758 236.801 112.928C236.295 110.627 236.574 109.24 237.933 107.298L239.07 105.673L238.025 106.92C235.569 109.849 234.423 110.519 233.171 109.756C231.962 109.018 232.088 108.671 235.317 103.853C239.076 98.2455 241.013 94.9813 243.326 90.3601L245.239 86.5372L243.302 89.4135C241.074 92.7224 240.355 93.3411 238.104 93.8841C236.38 94.3001 235.189 94.1737 234.001 93.4486C231.983 92.2176 230.722 89.8158 230.569 86.9127C230.451 84.6742 230.805 82.6007 231.942 78.8584C232.494 77.0429 232.783 75.752 232.585 75.9897C232.138 76.5271 231.635 76.2435 231.027 75.1109C230.257 73.6771 230.225 72.5256 230.709 63.4668C231.494 48.7597 228.659 37.4461 222.577 31.0087C220.158 28.4484 219.267 27.7483 216.067 25.8933C213.475 24.3906 211.813 23.6613 202.629 19.9997C201.562 19.5742 199.074 18.3159 197.1 17.2034C193.296 15.0605 193.282 15.049 186.816 8.95357C185.863 8.05525 185.649 7.9326 185.312 8.0917C184.73 8.36652 184.726 8.3859 184.886 10.6266ZM172.37 58.8916C172.937 61.1477 173.694 63.839 174.053 64.8724C174.7 66.7388 176.975 72.2344 177.4 72.9578C177.861 73.7451 177.411 72.5659 175.948 69.1608C175.053 67.0768 173.862 63.4895 172.98 60.2171C172.169 57.2118 171.468 54.7612 171.423 54.7715C171.377 54.7815 171.803 56.6357 172.37 58.8916ZM167.13 64.0953C166.999 64.8123 166.978 65.2562 167.084 65.0819C167.191 64.9077 167.385 64.1786 167.517 63.4616C167.648 62.7447 167.669 62.3007 167.563 62.475C167.456 62.6492 167.262 63.3784 167.13 64.0953ZM166.17 70.3944C166.133 71.1285 166.151 71.7592 166.211 71.7959C166.309 71.8557 166.557 69.1377 166.485 68.7987C166.397 68.3859 166.231 69.2279 166.17 70.3944ZM178.211 74.7169C178.959 76.306 181.889 81.3628 182.156 81.5253C182.272 81.5964 182.649 82.096 182.992 82.6358C183.336 83.1752 183.676 83.6035 183.749 83.5874C183.822 83.5715 183.022 82.2657 181.973 80.686C180.923 79.1063 179.544 76.8137 178.908 75.5916C177.685 73.2414 177.271 72.7222 178.211 74.7169ZM168.53 93.3C169.548 95.1635 170.021 95.9197 170.095 95.7997C170.126 95.7486 169.771 95.0519 169.306 94.2514C168.841 93.4511 168.323 92.5207 168.155 92.1841C167.988 91.8472 167.819 91.6235 167.781 91.6866C167.742 91.7496 168.079 92.4757 168.53 93.3ZM158.443 110.949C158.326 111.661 158.283 112.417 158.346 112.629C158.47 113.043 158.474 113.023 158.643 111.385C158.705 110.785 158.898 110.035 159.072 109.718C159.247 109.402 159.289 109.142 159.166 109.14C158.83 109.135 158.677 109.519 158.443 110.949ZM158.249 115.369C158.342 117.872 158.504 118.547 158.936 118.223C159.147 118.065 159.108 117.901 158.818 117.724C158.58 117.579 158.431 117.357 158.487 117.232C158.542 117.106 158.636 116.898 158.694 116.768C158.753 116.638 158.732 116.398 158.648 116.233C158.565 116.068 158.478 115.27 158.455 114.459C158.433 113.648 158.361 113.082 158.296 113.202C158.231 113.322 158.21 114.297 158.249 115.369ZM161.344 112.488C163.262 116.256 166.205 120.632 168.593 123.268C170.326 125.181 174.404 128.981 175.202 129.427C175.511 129.6 175.106 129.162 174.302 128.455C168.977 123.77 164.679 118.412 161.767 112.828C161.168 111.678 160.65 110.784 160.616 110.839C160.583 110.894 160.91 111.636 161.344 112.488ZM158.715 120.632C158.853 121.633 159.031 122.492 159.111 122.541C159.19 122.589 159.175 122.278 159.076 121.849C158.977 121.419 158.955 120.973 159.025 120.857C159.096 120.741 159.024 120.192 158.866 119.637C158.464 118.234 158.423 118.509 158.715 120.632ZM166.893 112.955C167.498 113.894 168.049 114.65 168.119 114.635C168.188 114.62 167.721 113.806 167.081 112.826C166.441 111.847 165.889 111.091 165.855 111.146C165.822 111.202 166.288 112.016 166.893 112.955ZM177.683 97.7496C178.519 98.8538 179.264 99.7442 179.338 99.7277C179.411 99.7116 178.787 98.7945 177.951 97.6902C177.114 96.586 176.37 95.6956 176.296 95.7121C176.222 95.7283 176.846 96.6453 177.683 97.7496ZM184.317 84.6748C185.412 86.4093 191.872 93.5723 192.816 94.0987C193.011 94.2078 192.01 93.086 190.592 91.6058C188.15 89.0565 185.078 85.4179 184.494 84.3823C184.347 84.1215 184.148 83.9252 184.054 83.9464C183.958 83.9674 184.077 84.2951 184.317 84.6748ZM179.559 108.166C180.227 108.834 180.956 109.482 181.178 109.606C181.4 109.73 180.913 109.17 180.096 108.362C179.278 107.553 178.55 106.906 178.476 106.922C178.403 106.938 178.89 107.498 179.559 108.166ZM160.783 143.302C161.269 145.923 164.126 152.142 166.839 156.485C170.746 162.739 174.496 166.481 180.467 170.083C182.29 171.183 183.557 172.061 183.487 172.176C183.268 172.535 182.352 172.607 181.118 172.362C180.449 172.229 179.855 172.199 179.797 172.294C179.493 172.793 183.58 177.44 187.46 181.005C195.046 187.975 203.457 192.486 211.739 194.026C218.812 195.34 226.613 193.973 232.191 190.441C235.443 188.382 238.568 185 240.225 181.747C242.121 178.024 242.933 174.947 243.246 170.295L243.374 168.384L243.904 168.883C244.367 169.319 244.365 169.276 243.89 168.544C242.781 166.832 244.363 165.878 247.305 166.483C248.629 166.755 248.966 166.91 249.312 167.405C249.54 167.732 249.811 167.981 249.915 167.958C250.017 167.935 249.981 167.843 249.833 167.752C249.123 167.319 250.277 167.418 252.564 167.986C260.616 169.986 266.886 169.285 273.465 165.649C275.874 164.318 277.61 162.996 280.097 160.601C290.24 150.832 295.785 135.708 294.872 120.301C294.519 114.336 292.154 104.082 291.041 103.689C290.818 103.611 290.593 103.668 290.541 103.816C290.34 104.384 285.045 112.976 283.887 114.613C280.193 119.834 274.447 125.488 267.886 130.359C262.708 134.203 260.7 134.744 260.17 132.439C260 131.697 260.097 131.361 260.831 130.157C261.355 129.299 262.265 128.244 263.154 127.467C270.491 121.049 276.264 115.619 278.572 112.964C282.079 108.929 285.225 103.347 286.17 99.4823C287.627 93.5163 285.706 83.6894 281.488 75.5363C280.33 73.2982 277.59 69.2534 277.278 69.3225C277.117 69.358 276.79 70.3757 276.551 71.5842C276.312 72.7925 275.956 74.5964 275.76 75.5931C275.365 77.6019 274.635 80.1461 273.664 82.8952C273.041 84.6607 270.4 90.8733 269.907 91.7333C269.772 91.9696 269.078 93.2421 268.366 94.5612C263.955 102.728 257.226 112.097 250.551 119.367C246.201 124.105 244.706 125.508 237.082 131.999C230.972 137.201 231.444 136.702 231.674 137.716C232.04 139.325 238.265 153.737 238.712 154.009C238.772 154.046 239.768 154.035 240.926 153.986C243.034 153.895 246.841 153.262 250.356 152.418C256.315 150.987 267.241 146.647 271.886 143.865C273.051 143.168 273.474 143.044 273.869 143.285C275.111 144.043 274.616 145.041 272.31 146.429C266.537 149.904 258.651 153.195 252.082 154.872C251.1 155.122 250.164 155.399 250.001 155.486C249.838 155.573 248.161 155.876 246.274 156.16C244.386 156.443 242.246 156.82 241.518 156.998L240.194 157.321L240.593 159.377C240.813 160.508 240.932 161.534 240.857 161.657C240.663 161.975 239.707 161.864 239.016 161.442C238.693 161.245 238.229 160.57 237.984 159.942C237.739 159.315 237.404 158.719 237.24 158.62C237.076 158.52 236.428 158.678 235.799 158.972C235.17 159.266 233.427 159.929 231.925 160.447C230.423 160.965 228.315 161.724 227.242 162.133C225.111 162.946 224.636 162.964 224.197 162.244C223.712 161.449 224.465 160.629 226.435 159.807C231.909 157.521 235.264 155.997 235.411 155.732C235.605 155.381 235.496 155.088 233.238 149.932C232.303 147.796 231.053 144.731 230.46 143.122C229.07 139.352 227.946 137.004 227.357 136.645C227.059 136.463 225.749 136.62 223.742 137.078C217.415 138.521 212.19 139.258 206.854 139.459C205.313 139.517 196.511 138.558 193.75 138.032C190.21 137.356 186.987 136.314 184.324 134.982C182.224 133.932 182.142 133.909 183.425 134.728C184.827 135.623 184.84 135.642 185.4 137.583C186.148 140.172 185.977 141.584 184.652 143.778C183.156 146.255 181.905 147.179 179.253 147.767C176.577 148.361 173.658 148.161 173.163 147.351C172.982 147.053 172.52 146.675 172.138 146.511C171.536 146.252 171.552 146.284 172.255 146.751C172.976 147.229 173.016 147.319 172.608 147.549C172.356 147.692 171.491 147.712 170.686 147.594C169.392 147.405 168.876 147.171 166.25 145.581C164.615 144.591 162.754 143.362 162.113 142.85C160.79 141.793 160.52 141.885 160.783 143.302ZM165.135 138.545C166.002 139.9 166.857 141.024 166.771 140.698C166.685 140.37 164.475 137.125 164.41 137.231C164.379 137.283 164.705 137.874 165.135 138.545ZM182.372 110.808C182.467 110.988 183.081 111.498 183.736 111.941L184.927 112.748L183.67 111.596C182.39 110.423 182.064 110.226 182.372 110.808ZM195.267 95.8034C196.234 96.3926 196.625 96.5801 196.135 96.2202C195.646 95.8601 194.854 95.3782 194.377 95.149C193.899 94.9199 194.299 95.2144 195.267 95.8034ZM232.904 36.2C233.532 37.75 234.044 38.8843 234.04 38.7202C234.031 38.327 232.002 33.3191 231.866 33.3541C231.808 33.3693 232.275 34.65 232.904 36.2ZM234.98 32.1817C235.711 32.4681 236.292 32.6408 236.272 32.5659C236.213 32.3411 233.839 31.3538 233.742 31.5135C233.692 31.5948 234.25 31.8954 234.98 32.1817ZM235.09 42.5208L236.01 45.8303L235.184 42.4999C234.73 40.6684 234.331 39.1533 234.299 39.1334C234.14 39.0362 234.235 39.4469 235.09 42.5208ZM180.243 133.024C181.029 133.503 181.373 133.661 181.009 133.374C180.645 133.088 180.003 132.696 179.581 132.503C179.16 132.31 179.458 132.544 180.243 133.024ZM245.718 37.5795C247.47 38.6486 248.207 39.053 247.355 38.4783C246.503 37.9038 245.07 37.0292 244.17 36.5345C243.269 36.0401 243.966 36.5104 245.718 37.5795ZM220.006 77.3728C219.885 77.8569 219.587 79.11 219.344 80.1573C219.101 81.2047 218.507 83.6976 218.025 85.6971C217.099 89.5362 217.06 90.0691 217.68 90.4469C218.772 91.1133 219.293 89.8993 221.231 82.1781C222.345 77.7372 222.529 76.2188 222.029 75.5872C221.369 74.753 220.46 75.5551 220.006 77.3728ZM234.912 70.6698C234.816 71.0891 234.494 72.1321 234.198 72.9875C233.858 73.968 233.809 74.313 234.066 73.9211C234.458 73.3235 235.435 70.0596 235.335 69.6808C235.268 69.4251 235.119 69.773 234.912 70.6698ZM252.357 51.4567C252.425 56.2508 252.444 56.5009 252.597 54.6587C252.747 52.8626 252.656 48.108 252.466 47.7476C252.288 47.4119 252.296 47.1436 252.357 51.4567ZM192.429 149.328C192.539 149.745 192.78 149.929 193.592 150.211C197.397 151.537 207.157 151.749 214.996 150.676C219.389 150.075 219.82 149.93 220.079 148.954C220.41 147.706 219.652 147.286 217.741 147.661C216.894 147.826 215.633 148.003 214.94 148.052C214.246 148.101 212.951 148.223 212.062 148.322C211.172 148.42 210.223 148.496 209.952 148.49C209.681 148.484 208.646 148.513 207.652 148.554C206.658 148.595 205.151 148.653 204.304 148.683C203.457 148.713 200.586 148.526 197.925 148.267C193.706 147.857 193.036 147.861 192.689 148.299C192.469 148.575 192.353 149.038 192.429 149.328ZM257.369 47.6305C257.378 48.1543 257.442 48.6172 257.511 48.6593C257.58 48.7013 257.612 48.4307 257.581 48.0576C257.48 46.8197 257.873 46.5639 258.929 47.1802C259.849 47.7173 259.859 47.7162 259.334 47.1338C258.697 46.4275 257.734 46.0493 257.511 46.4179C257.424 46.5612 257.36 47.1067 257.369 47.6305ZM252.103 58.9837C252.032 60.2956 252.022 61.3024 252.079 61.2212C252.216 61.0299 252.605 56.3909 252.49 56.3211C252.299 56.2042 252.227 56.7 252.103 58.9837ZM260.862 48.9643C261.222 49.184 263.157 51.2841 265.529 54.0274C267.146 55.8989 270.811 61.4516 271.176 62.5852C272.054 65.3091 271.265 72.6583 269.284 80.193C268.995 81.2929 269.001 81.3828 269.311 80.644C270.613 77.5437 272.177 67.1453 271.801 64.0937C271.481 61.5001 268.512 56.8272 263.853 51.5851C262.509 50.0724 260.963 48.6486 260.722 48.7017C260.605 48.7277 260.668 48.8459 260.862 48.9643ZM251.043 66.2471C250.872 67.2255 250.793 68.0125 250.867 67.9961C251 67.9668 251.675 64.4883 251.602 64.2097C251.519 63.8928 251.338 64.5553 251.043 66.2471ZM190.6 168.424C190.7 168.804 190.862 169.164 190.96 169.223C191.327 169.447 196.056 169.764 198.69 169.741C203.816 169.697 211.74 168.864 212.509 168.288C212.677 168.162 212.865 167.766 212.927 167.406C213.117 166.307 212.266 166.101 208.972 166.448C205.085 166.859 200.071 167.089 196.875 167.003C191.179 166.85 190.951 166.861 190.682 167.302C190.537 167.539 190.5 168.044 190.6 168.424ZM246.172 83.7729C245.894 84.5808 245.897 84.5882 246.273 83.9791C246.487 83.6315 246.761 83.016 246.881 82.6112C247.076 81.9581 247.064 81.9349 246.781 82.405C246.605 82.6964 246.332 83.312 246.172 83.7729ZM249.756 88.5686L248.814 90.7477L249.921 88.6693C250.53 87.5262 251.182 86.1631 251.37 85.6402L251.712 84.6894L251.205 85.5395C250.927 86.0072 250.275 87.3703 249.756 88.5686ZM240.814 103.694C243.002 101.069 249.528 90.6159 248.481 91.4143C248.249 91.5914 247.321 93.1123 246.42 94.7942C245.483 96.541 244.646 97.8825 244.468 97.9233C244.293 97.963 244.147 98.1939 244.136 98.4455C244.125 98.6934 243.718 99.3709 243.232 99.951C242.745 100.531 241.66 102.021 240.82 103.262L239.293 105.519L240.814 103.694ZM221.122 176.14C221.382 176.96 221.823 176.989 223.483 176.296C224.261 175.971 225.505 175.466 226.247 175.175C228.789 174.176 233.059 171.966 233.336 171.505C233.769 170.783 233.641 170.282 232.941 169.96C232.415 169.717 231.984 169.84 230.569 170.637C229.617 171.172 227.172 172.309 225.135 173.163C223.099 174.017 221.319 174.9 221.182 175.126C221.044 175.352 221.017 175.808 221.122 176.14ZM240.698 147.118C240.795 147.489 240.974 147.853 241.095 147.927C241.454 148.146 242.61 147.8 243.711 147.143C244.278 146.805 245.676 146.12 246.817 145.621C247.958 145.121 249.687 144.255 250.659 143.696C252.126 142.852 252.447 142.566 252.543 142.011C252.798 140.534 251.386 140.165 249.774 141.289C249.205 141.686 247.329 142.65 245.605 143.432C243.881 144.213 242.032 145.21 241.495 145.648C240.562 146.409 240.528 146.471 240.698 147.118ZM246.637 171.527C248.048 172.886 248.56 173.122 247.317 171.841C246.762 171.268 246.15 170.741 245.958 170.669C245.766 170.597 246.072 170.983 246.637 171.527ZM249.325 173.965C249.895 174.425 250.435 174.785 250.525 174.765C250.615 174.745 250.219 174.353 249.645 173.894C249.071 173.435 248.531 173.075 248.446 173.094C248.36 173.113 248.756 173.505 249.325 173.965ZM257.956 179.832C260.614 181.454 261.69 182.069 260.347 181.198C259.003 180.328 256.828 179.001 255.513 178.249C254.198 177.498 255.297 178.211 257.956 179.832ZM260.272 176.037C261.963 177.069 262.647 177.44 261.79 176.862C260.933 176.284 259.549 175.44 258.714 174.986C257.879 174.532 258.58 175.005 260.272 176.037ZM266.653 179.413C267.132 179.715 267.967 180.126 268.509 180.324L269.494 180.686L268.731 180.208C268.311 179.945 267.476 179.535 266.875 179.296L265.783 178.862L266.653 179.413ZM266.091 184.287C266.449 184.516 267.185 184.866 267.727 185.065C269.024 185.541 267.997 184.887 266.532 184.305C265.714 183.979 265.603 183.975 266.091 184.287ZM273.111 187.112C273.351 187.262 274.116 187.564 274.811 187.784C275.506 188.003 275.879 188.059 275.639 187.909C275.399 187.759 274.634 187.457 273.938 187.238C273.243 187.018 272.87 186.962 273.111 187.112ZM278.131 188.766C278.896 189.269 287.625 191.151 289.139 191.139C289.844 191.133 289.38 191.021 286.299 190.449C284.884 190.187 282.419 189.669 280.821 189.298C279.223 188.928 278.013 188.688 278.131 188.766ZM281 184.432C281.255 184.619 284.341 185.309 285.918 185.531C286.724 185.644 287.432 185.767 287.491 185.803C287.836 186.013 294.569 186.708 297.971 186.885C300.73 187.028 305.662 186.739 308.743 186.253C309.807 186.085 310.801 186.096 311.139 186.279C311.648 186.555 311.666 186.547 311.293 186.211C310.867 185.828 308.515 185.663 308.308 186.002C308.13 186.294 302.263 186.713 299.188 186.655C295.616 186.587 288.796 185.835 284.903 185.079C281.125 184.345 280.812 184.293 281 184.432ZM297.832 192.054C298.985 192.149 303.331 192.169 303.995 192.082C305.077 191.941 304.566 191.911 300.973 191.91C298.375 191.909 296.895 191.977 297.832 192.054ZM309.591 191.641C310.561 191.455 311.512 191.154 311.704 190.973C311.895 190.792 311.93 190.642 311.781 190.64C311.632 190.639 311.442 190.747 311.36 190.882C311.278 191.016 310.45 191.318 309.519 191.553L307.827 191.979L309.591 191.641ZM311.949 187.832C312.064 188.383 312.185 189.174 312.218 189.59C312.263 190.171 312.304 190.229 312.392 189.837C312.541 189.179 312.383 187.951 312.06 187.246C311.722 186.51 311.699 186.633 311.949 187.832Z" fill="#3F734E"/>
</g>
<path fill-rule="evenodd" clip-rule="evenodd" d="M227.792 161.447C226.887 159.516 226.891 159.517 220.159 159.587C217.648 159.614 213.35 159.58 210.608 159.513C207.866 159.446 203.941 159.389 201.886 159.385C199.83 159.381 195.063 159.197 191.29 158.975C187.518 158.753 183.741 158.579 182.897 158.588C182.053 158.597 181.376 158.497 181.393 158.365C181.41 158.233 182.36 156.992 183.504 155.606C186.576 151.887 187.52 149.47 188.263 143.427C188.752 139.452 188.781 138.279 188.437 136.351C186.536 125.699 178.792 114.514 168.658 107.783C167.186 106.805 165.717 105.801 165.394 105.552C164.614 104.952 159.576 102.818 158.663 102.701C158.267 102.65 157.733 102.805 157.476 103.045C157.086 103.41 157.182 104.024 158.054 106.749C159.861 112.391 160.174 114.837 159.962 121.632C159.822 126.138 159.355 128.598 157.838 132.832C156.352 136.976 154.569 138.712 153.705 136.853C153.406 136.209 153.45 135.652 153.939 133.879C154.86 130.537 155.841 121.057 155.35 120.239C155.215 120.015 155.103 119.105 155.102 118.217C155.099 116.448 154.48 112.575 154.105 111.981C153.975 111.775 153.7 110.932 153.494 110.107C153.005 108.147 150.695 102.708 149.85 101.525C148.944 100.256 147.191 99.7019 140.625 98.6074C134.231 97.5417 128.165 97.3356 123.59 98.0284C122.059 98.2603 120.325 98.4869 119.736 98.5324C119.134 98.5786 118.401 98.9245 118.06 99.3242C117.497 99.9828 117.49 100.087 117.966 100.779C118.247 101.189 119.189 102.207 120.059 103.04C124.563 107.36 129.345 116.238 131.008 123.367C131.37 124.921 131.756 126.495 131.864 126.864C132.421 128.756 132.693 130.997 132.522 132.272C132.416 133.057 132.45 133.889 132.597 134.121C132.745 134.353 132.735 134.824 132.575 135.167C132.407 135.53 132.428 135.809 132.625 135.834C132.811 135.858 132.939 136.072 132.909 136.31C132.87 136.609 132.591 136.658 132.001 136.468C130.836 136.094 130.25 134.885 131.299 135.02C131.561 135.053 131.795 134.921 131.82 134.726C131.845 134.531 131.584 134.408 131.239 134.452C130.722 134.519 130.535 134.18 130.165 132.498C129.339 128.747 126.968 122.15 125.531 119.602C121.705 112.823 119.009 109.355 114.502 105.415C110.475 101.894 109.241 101.153 107.449 101.181C103.047 101.248 86.8399 106.648 83.8941 109.029C82.6175 110.061 82.9126 110.777 84.9585 111.606C90.6045 113.895 95.3159 116.835 99.2505 120.523C105.09 125.998 109.538 133.269 109.48 137.242C109.462 138.454 109.353 138.669 108.563 139.054C107.713 139.467 107.623 139.453 106.829 138.784C106.368 138.395 105.356 137.053 104.579 135.8C102.901 133.094 99.5503 128.864 97.3559 126.682C93.6476 122.995 86.7615 118.823 80.3481 116.378L76.8738 115.054L74.7863 115.715C69.6742 117.334 56.2969 124.796 56.1273 126.123C56.0329 126.862 57.5111 127.849 59.0111 128.048C60.6092 128.26 67.2403 130.961 69.3774 132.27C69.7066 132.472 70.6593 132.96 71.495 133.354C76.2074 135.579 79.8124 139.63 78.057 140.73C77.109 141.323 74.4771 140.752 71.7118 139.352C70.8721 138.927 69.1544 138.12 67.895 137.559C66.6356 136.999 64.5761 136.073 63.3182 135.5C60.7162 134.317 55.4922 132.569 52.4138 131.851L50.3334 131.365L45.002 134.432C36.169 139.513 32.8968 141.441 28.5476 144.126C26.2647 145.536 23.9585 146.929 23.4223 147.222C22.886 147.514 21.6355 148.362 20.6432 149.106C19.6508 149.85 18.6421 150.538 18.4019 150.635C17.6524 150.938 10.5515 156.447 8.61372 158.229C6.15274 160.492 5.41717 161.426 5.42964 162.27C5.44274 163.145 6.90775 164.182 7.5525 163.772C8.2572 163.325 12.7362 162.149 15.6112 161.656C20.555 160.809 22.6306 160.757 27.5876 161.357C32.8538 161.995 34.4674 162.465 39.1815 164.735C42.9387 166.544 45.2891 168.101 50.0317 171.923C54.2049 175.286 53.6164 175.177 59.9895 173.769C66.4438 172.343 68.8269 171.684 73.5898 170.011C78.474 168.295 79.6234 167.799 83.6917 165.653C88.1254 163.315 89.7817 163.235 89.5085 165.374C89.376 166.411 89.0617 166.767 86.7479 168.5C84.3484 170.297 82.6972 171.258 77.9703 173.606C73.9192 175.62 65.2773 178.304 62.1018 178.535C61.0726 178.61 60.0853 178.918 59.6068 179.312L58.8152 179.965L59.4785 180.897C60.2468 181.978 64.3439 185.568 66.7115 187.236C67.6063 187.866 68.6841 188.693 69.1065 189.074C69.5289 189.455 69.9776 189.78 70.1036 189.796C70.2293 189.812 72.225 191.064 74.5378 192.579C79.2381 195.657 81.65 197.119 85.7117 199.35L88.4815 200.872L90.5254 200.113C95.0916 198.416 104.826 190.935 110.348 184.878C111.316 183.816 112.119 182.86 112.133 182.753C112.146 182.646 112.85 181.745 113.696 180.752C115.541 178.586 119.943 172.126 120.029 171.459C120.107 170.844 121.708 169.609 122.325 169.688C123.129 169.79 123.93 171.232 123.79 172.324C123.531 174.349 119.388 181.969 116.754 185.264C115.131 187.293 113.157 189.888 113.141 190.011C113.023 190.935 103.471 198.425 98.3496 201.61C97.241 202.299 96.3174 202.994 96.2969 203.154C96.2429 203.578 97.932 204.673 99.7166 205.373C107.007 208.23 112.583 210.125 114.631 210.442C115.631 210.596 116.219 210.391 118.128 209.225C120.168 207.979 126.346 202.827 126.411 202.318C126.425 202.209 127.134 201.33 127.988 200.364C131.373 196.532 134.524 190.151 136.608 182.904C137.343 180.347 137.812 179.733 138.919 179.874C140.402 180.064 140.756 180.965 140.401 183.638C140.104 185.878 139.718 187.211 137.93 192.175C136.222 196.917 131.554 203.732 126.359 209.064C125.134 210.323 124.287 211.447 124.356 211.726C124.42 211.992 124.969 212.496 125.575 212.845C126.475 213.363 128.202 213.67 134.975 214.516C145.492 215.83 145.848 215.824 147.201 214.328C147.777 213.691 148.721 212.433 149.3 211.53C149.879 210.628 150.617 209.489 150.941 208.997C153.135 205.667 154.715 200.555 155.553 194.077C156.185 189.189 156.146 186.115 155.373 180.043C154.984 176.982 155.27 176.376 156.855 176.906C157.932 177.265 158.494 178.726 159.23 183.078C160.499 190.571 159.889 198.406 157.5 205.318C156.737 207.528 155.759 209.926 155.327 210.648C153.333 213.976 154.693 214.839 160.425 213.883C161.604 213.687 162.87 213.438 163.239 213.33C163.607 213.223 164.582 212.978 165.405 212.788C170.157 211.688 176.409 208.507 180.041 205.341C183.449 202.368 184.526 200.952 187.148 195.984C188.244 193.907 188.356 193.459 188.93 188.845C189.51 184.183 189.51 183.756 188.92 180.778C188.578 179.048 187.998 177.159 187.632 176.58C187.267 176.001 186.975 175.383 186.984 175.207C187.039 174.174 182.826 169.449 179.83 167.185C178.087 165.867 178.359 165.708 182.044 165.897C185.503 166.073 189.76 166.222 200.032 166.525C204.541 166.658 209.819 166.823 211.763 166.892C213.706 166.961 216.536 166.974 218.051 166.922C219.566 166.869 222.185 166.828 223.87 166.829C225.635 166.83 227.197 166.657 227.552 166.421C228.578 165.739 228.692 163.369 227.792 161.447ZM227.322 161.775C226.593 160.335 226.799 160.364 217.597 160.368C205.633 160.372 197 160.09 182.74 159.229C179.562 159.038 179.547 159.033 180.098 158.447C185.197 153.013 186.548 150.557 187.526 144.946C189.377 134.322 184.584 122.641 174.548 113.319C171.161 110.172 165.793 106.536 161.804 104.687C157.851 102.855 157.533 102.934 158.457 105.521C159.49 108.413 160.193 111.601 160.663 115.526C161.036 118.631 161.003 119.559 160.344 124.695C159.723 129.531 159.454 130.796 158.591 132.924C156.905 137.086 155.551 138.693 154.233 138.099C152.631 137.378 152.475 136.846 153.062 134.107C153.676 131.243 154.718 123.101 154.628 121.867C154.595 121.42 154.532 120.032 154.488 118.784C154.443 117.536 154.321 116.359 154.216 116.168C154.111 115.977 153.83 114.78 153.591 113.507C153.016 110.436 150.695 103.817 149.672 102.33C148.929 101.25 148.617 101.081 146.203 100.444C143.417 99.7088 135.269 98.5906 132.251 98.529C126.771 98.4173 119.482 99.0258 118.609 99.668C118.221 99.9537 118.381 100.271 119.502 101.444C123.434 105.558 126.647 110.361 129.036 115.694C133.366 125.364 135.396 138.794 135.293 157.1L135.285 158.504L144.415 159.457C149.436 159.981 153.942 160.386 154.428 160.357C155.126 160.316 155.37 160.095 155.585 159.314C156.431 156.244 158.498 149.04 158.977 147.492C159.395 146.138 159.739 145.591 160.362 145.288C161.128 144.915 161.235 144.936 161.769 145.558C162.434 146.335 162.462 146.167 160.265 154.594C159.472 157.634 158.877 160.34 158.942 160.609C159.041 161.011 159.583 161.126 162.046 161.264C163.687 161.356 167.098 161.695 169.625 162.018L174.22 162.605L174.417 163.523C174.759 165.114 174.014 165.352 169.518 165.089C151.046 164.01 137.384 162.587 105.401 158.412C65.153 153.157 53.2493 151.434 52.9643 150.823C52.5677 149.973 52.8523 148.917 53.5503 148.651C53.9923 148.483 66.8472 150.016 92.9403 153.35C114.244 156.072 131.759 158.195 131.862 158.067C132.426 157.37 131.729 145.323 130.77 139.218C128.213 122.929 122.534 112.391 111.783 103.984L108.916 101.741L106.866 101.978C104.001 102.308 99.1474 103.514 94.9724 104.932C91.131 106.236 84.2562 109.15 83.8579 109.641C83.4368 110.162 84.0349 110.579 86.8669 111.74C95.57 115.31 103.475 122.32 108.025 130.502C111.093 136.019 110.872 140.261 107.539 139.835C106.696 139.727 106.312 139.378 105.302 137.803C103.006 134.219 98.5472 128.722 96.234 126.624C91.4987 122.328 86.0779 119.11 79.6973 116.805L76.5696 115.675L73.5632 116.833C68.6853 118.712 56.6947 125.496 56.8499 126.289C56.8884 126.485 57.9588 126.945 59.2285 127.311C66.3975 129.378 75.1851 134.13 77.9002 137.408C79.4821 139.318 79.6127 140.47 78.3482 141.351C77.0562 142.251 75.3307 141.751 68.0167 138.352C63.4804 136.244 59.4724 134.716 54.8142 133.317C50.3566 131.979 50.6248 131.959 47.2287 133.899C27.8971 144.945 20.3584 149.686 12.8456 155.523C8.46561 158.926 5.96983 161.492 6.18458 162.372C6.38029 163.174 6.91961 163.155 9.99934 162.238C17.9351 159.877 26.2741 159.672 33.3094 161.667C39.3983 163.394 44.427 166.241 50.8905 171.623C53.4405 173.746 54.0245 174.1 54.7837 173.981C65.323 172.329 74.6698 169.45 83.0437 165.276C87.0114 163.298 87.8292 163.003 88.7871 163.209C89.6665 163.397 89.9433 163.632 90.0875 164.314C90.1887 164.79 90.1217 165.562 89.9386 166.03C89.1386 168.074 81.6854 172.899 75.2815 175.519C70.9561 177.288 64.695 179.189 62.0823 179.526C61.02 179.663 60.0063 179.887 59.8295 180.024C58.6952 180.901 77.5155 194.313 86.7738 199.225L88.7165 200.255L90.6351 199.307C96.7523 196.285 105.868 189.198 109.829 184.385C110.622 183.422 111.995 181.782 112.882 180.742C114.627 178.694 117.206 175.042 119.255 171.716C120.746 169.296 122.062 168.472 123.342 169.155C125.072 170.079 124.901 172.272 122.753 176.721C117.833 186.906 109.32 196.018 99.4969 201.613C97.1589 202.944 97.0306 203.071 97.5498 203.544C98.3684 204.288 101.782 205.651 108.799 208.034L115.039 210.153L116.79 209.322C121.504 207.083 128.26 199.954 131.871 193.41C133.028 191.312 135.922 183.438 136.128 181.826C136.267 180.734 137.74 178.965 138.553 178.914C139.564 178.85 140.784 179.787 141.146 180.903C141.586 182.264 141.063 185.305 139.683 189.401C137.233 196.671 132.621 203.893 126.923 209.38C125.834 210.429 124.925 211.424 124.904 211.59C124.829 212.176 129.087 213.183 134.595 213.882C139.604 214.518 145.96 214.938 146.248 214.652C147.043 213.865 149.895 209.365 150.905 207.305C152.986 203.059 153.952 199.685 154.672 194.148C155.357 188.87 155.38 185.851 154.769 180.946C154.305 177.23 154.359 176.624 155.204 176.036C156.606 175.059 158.174 176.176 158.946 178.7C160.776 184.69 161.173 191.98 160.031 198.627C159.258 203.128 158.25 206.311 156.343 210.279C155.633 211.755 155.124 213.122 155.212 213.315C155.437 213.811 157.121 213.701 161.516 212.903C168.826 211.575 175.172 208.721 179.663 204.741C183.282 201.534 184.104 200.496 186.166 196.522C188.282 192.443 189.213 186.707 188.5 182.14C187.584 176.278 185.657 172.983 180.557 168.559C178.728 166.973 177.248 165.555 177.267 165.409C177.303 165.127 178.273 165.123 184.691 165.382C192.547 165.699 211.242 166.181 213.285 166.12C216.616 166.021 220.017 166.037 223.608 166.169C225.673 166.246 227.075 166.151 227.265 165.922C227.894 165.163 227.925 162.965 227.322 161.775ZM178.994 184.812C178.654 182.198 177.061 177.607 175.99 176.157C175.264 175.172 173.763 174.227 173.388 174.517C172.926 174.874 173.11 175.708 174.166 178.042C175.235 180.404 176.882 186.099 176.763 187.024C176.612 188.209 178.212 188.871 178.898 187.908C179.122 187.593 179.303 187.289 179.3 187.233C179.298 187.177 179.16 186.087 178.994 184.812ZM177.897 134.587C177.346 133.996 176.495 134.216 176.109 135.047C175.942 135.409 175.812 135.739 175.822 135.781C175.897 136.111 171.674 144.313 170.682 145.764C169.594 147.353 169.458 147.721 169.687 148.46C170.474 150.999 172.845 148.571 175.942 142.053C177.763 138.221 178.536 135.271 177.897 134.587ZM108.868 172.565C108.351 171.898 107.5 172.437 105.59 174.642C103.816 176.691 103.52 177.651 104.5 178.179C104.97 178.432 107.785 176.377 107.869 175.72C107.895 175.515 108.153 175.197 108.443 175.013C109.067 174.617 109.321 173.151 108.868 172.565ZM96.0084 133.299C95.0871 132.143 93.6788 131.261 93.2653 131.581C92.6262 132.075 94.2601 135.586 95.3377 136.034C96.068 136.338 96.8231 135.903 96.923 135.121C96.9638 134.801 96.5523 133.981 96.0084 133.299Z" fill="#CFE2C5"/>
<path fill-rule="evenodd" clip-rule="evenodd" d="M227.322 161.775C226.593 160.335 226.799 160.364 217.597 160.368C205.633 160.372 197 160.09 182.74 159.229C179.562 159.038 179.547 159.033 180.098 158.447C185.197 153.013 186.548 150.557 187.526 144.946C189.377 134.322 184.584 122.641 174.548 113.319C171.161 110.172 165.793 106.536 161.804 104.687C157.851 102.855 157.533 102.934 158.457 105.521C159.49 108.413 160.193 111.601 160.663 115.526C161.036 118.631 161.003 119.559 160.344 124.695C159.723 129.531 159.454 130.796 158.591 132.924C156.905 137.086 155.551 138.693 154.233 138.099C152.631 137.378 152.475 136.846 153.062 134.107C153.676 131.243 154.718 123.101 154.628 121.867C154.595 121.42 154.532 120.032 154.488 118.784C154.443 117.536 154.321 116.359 154.216 116.168C154.111 115.977 153.83 114.78 153.591 113.507C153.016 110.436 150.695 103.817 149.672 102.33C148.929 101.25 148.617 101.081 146.203 100.444C143.417 99.7088 135.269 98.5906 132.251 98.529C126.771 98.4173 119.482 99.0258 118.609 99.668C118.221 99.9537 118.381 100.271 119.502 101.444C123.434 105.558 126.647 110.361 129.036 115.694C133.366 125.364 135.396 138.794 135.293 157.1L135.285 158.504L144.415 159.457C149.436 159.981 153.942 160.386 154.428 160.357C155.126 160.315 155.37 160.095 155.585 159.314C156.431 156.244 158.498 149.04 158.977 147.492C159.395 146.138 159.739 145.591 160.362 145.288C161.128 144.915 161.235 144.936 161.769 145.558C162.434 146.335 162.462 146.167 160.265 154.594C159.472 157.634 158.877 160.34 158.942 160.609C159.041 161.011 159.583 161.126 162.046 161.264C163.687 161.356 167.098 161.695 169.625 162.018L174.22 162.605L174.417 163.523C174.759 165.114 174.014 165.352 169.518 165.089C151.046 164.01 137.384 162.587 105.401 158.412C65.153 153.157 53.2493 151.434 52.9643 150.823C52.5677 149.973 52.8523 148.917 53.5503 148.651C53.9923 148.483 66.8471 150.016 92.9403 153.35C114.244 156.072 131.759 158.195 131.862 158.067C132.426 157.37 131.729 145.323 130.77 139.218C128.213 122.929 122.534 112.391 111.783 103.984L108.916 101.741L106.866 101.978C104.001 102.308 99.1474 103.514 94.9724 104.932C91.1309 106.236 84.2562 109.15 83.8579 109.641C83.4368 110.161 84.0349 110.579 86.8669 111.74C95.57 115.31 103.475 122.32 108.025 130.502C111.093 136.019 110.872 140.261 107.539 139.835C106.696 139.727 106.312 139.378 105.302 137.803C103.006 134.219 98.5471 128.722 96.234 126.624C91.4987 122.328 86.0779 119.11 79.6973 116.805L76.5696 115.675L73.5632 116.833C68.6853 118.712 56.6947 125.496 56.8499 126.288C56.8884 126.485 57.9588 126.945 59.2285 127.311C66.3975 129.378 75.1851 134.13 77.9002 137.408C79.4821 139.318 79.6127 140.47 78.3482 141.351C77.0562 142.251 75.3307 141.751 68.0167 138.352C63.4803 136.244 59.4724 134.716 54.8141 133.317C50.3566 131.979 50.6248 131.959 47.2287 133.899C27.8971 144.945 20.3584 149.686 12.8455 155.523C8.4656 158.926 5.96982 161.492 6.18457 162.372C6.38028 163.174 6.9196 163.155 9.99933 162.238C17.9351 159.876 26.2741 159.672 33.3094 161.667C39.3983 163.393 44.427 166.241 50.8905 171.623C53.4405 173.746 54.0245 174.1 54.7837 173.981C65.323 172.329 74.6697 169.45 83.0437 165.276C87.0114 163.298 87.8292 163.003 88.7871 163.209C89.6664 163.397 89.9433 163.632 90.0875 164.314C90.1887 164.79 90.1216 165.562 89.9386 166.03C89.1386 168.074 81.6854 172.899 75.2815 175.519C70.9561 177.288 64.695 179.189 62.0823 179.526C61.02 179.663 60.0063 179.887 59.8294 180.024C58.6952 180.901 77.5155 194.313 86.7738 199.224L88.7165 200.255L90.6351 199.307C96.7523 196.285 105.868 189.198 109.829 184.385C110.622 183.422 111.995 181.782 112.882 180.742C114.627 178.694 117.205 175.042 119.255 171.716C120.746 169.296 122.062 168.472 123.342 169.155C125.072 170.079 124.901 172.272 122.753 176.721C117.833 186.906 109.32 196.018 99.4969 201.613C97.1588 202.944 97.0306 203.071 97.5498 203.544C98.3684 204.288 101.782 205.651 108.799 208.034L115.039 210.153L116.79 209.322C121.504 207.083 128.26 199.954 131.871 193.41C133.028 191.312 135.922 183.438 136.128 181.826C136.267 180.734 137.74 178.965 138.553 178.914C139.564 178.85 140.784 179.787 141.146 180.903C141.586 182.264 141.063 185.305 139.683 189.401C137.233 196.671 132.62 203.893 126.923 209.38C125.834 210.429 124.925 211.424 124.904 211.59C124.829 212.176 129.087 213.183 134.595 213.882C139.604 214.518 145.96 214.938 146.248 214.652C147.043 213.865 149.895 209.365 150.905 207.305C152.986 203.059 153.952 199.685 154.672 194.148C155.357 188.87 155.38 185.851 154.768 180.946C154.305 177.229 154.359 176.624 155.204 176.036C156.606 175.059 158.174 176.176 158.946 178.7C160.776 184.69 161.173 191.98 160.031 198.627C159.258 203.128 158.25 206.311 156.343 210.279C155.633 211.755 155.124 213.122 155.212 213.315C155.437 213.811 157.121 213.701 161.516 212.903C168.826 211.575 175.172 208.721 179.663 204.741C183.282 201.534 184.104 200.496 186.166 196.522C188.282 192.443 189.213 186.707 188.5 182.14C187.584 176.278 185.657 172.983 180.557 168.559C178.728 166.973 177.248 165.555 177.267 165.409C177.303 165.127 178.273 165.123 184.691 165.382C192.547 165.699 211.242 166.181 213.285 166.12C216.616 166.021 220.017 166.037 223.608 166.169C225.673 166.246 227.075 166.151 227.265 165.922C227.894 165.163 227.925 162.965 227.322 161.775ZM178.994 184.812C178.654 182.198 177.061 177.607 175.99 176.157C175.264 175.172 173.763 174.227 173.388 174.517C172.926 174.874 173.11 175.708 174.166 178.042C175.235 180.404 176.882 186.099 176.763 187.024C176.612 188.209 178.212 188.871 178.898 187.908C179.122 187.593 179.303 187.289 179.3 187.233C179.298 187.177 179.16 186.087 178.994 184.812ZM177.897 134.587C177.346 133.996 176.495 134.216 176.109 135.047C175.942 135.409 175.812 135.739 175.822 135.781C175.897 136.111 171.674 144.313 170.681 145.764C169.594 147.353 169.458 147.721 169.687 148.46C170.474 150.999 172.845 148.571 175.942 142.053C177.763 138.221 178.536 135.271 177.897 134.587ZM108.868 172.565C108.351 171.898 107.5 172.437 105.59 174.642C103.816 176.691 103.52 177.651 104.5 178.179C104.97 178.432 107.785 176.377 107.869 175.72C107.895 175.515 108.153 175.197 108.443 175.013C109.067 174.617 109.321 173.151 108.868 172.565ZM96.0084 133.299C95.0871 132.143 93.6788 131.261 93.2652 131.581C92.6262 132.075 94.2601 135.586 95.3377 136.034C96.068 136.338 96.8231 135.903 96.923 135.121C96.9638 134.801 96.5523 133.981 96.0084 133.299Z" fill="#17452A"/>
</g>
<defs>
<clipPath id="clip0_6_199">
<rect width="247.45" height="257.36" fill="white" transform="translate(62.0004 164.743) rotate(-58.6089)"/>
</clipPath>
</defs>
</svg>
